<!DOCTYPE svg PUBLIC "-//W3C//DTD SVG 1.1//EN" "http://www.w3.org/Graphics/SVG/1.1/DTD/svg11.dtd">
<!-- Uploaded to: SVG Repo, www.svgrepo.com, Transformed by: SVG Repo Mixer Tools -->
<svg width="172px" height="172px" viewBox="-2 -2 24.00 24.00" version="1.1" xmlns="http://www.w3.org/2000/svg" xmlns:xlink="http://www.w3.org/1999/xlink" fill="#000000" stroke="#000000">
<g id="SVGRepo_bgCarrier" stroke-width="0"/>
<g id="SVGRepo_tracerCarrier" stroke-linecap="round" stroke-linejoin="round" stroke="#CCCCCC" stroke-width="0.04"/>
<g id="SVGRepo_iconCarrier"> <title>object_placement [#67]</title> <desc>Created with Sketch.</desc> <defs> </defs> <g id="Page-1" stroke="none" stroke-width="1" fill="none" fill-rule="evenodd"> <g id="Dribbble-Light-Preview" transform="translate(-100.000000, -7919.000000)" fill="#9c9c9c"> <g id="icons" transform="translate(56.000000, 160.000000)"> <path d="M44,7770 L64,7770 L64,7768 L44,7768 L44,7770 Z M50,7777 L62,7777 L62,7774 L50,7774 L50,7777 Z M46,7777 L48,7777 L48,7774 L46,7774 L46,7777 Z M50,7772 L48,7772 L46,7772 L44,7772 L44,7774 L44,7777 L44,7779 L46,7779 L48,7779 L50,7779 L62,7779 L64,7779 L64,7772 L62,7772 L50,7772 Z M50,7764 L62,7764 L62,7761 L50,7761 L50,7764 Z M46,7764 L48,7764 L48,7761 L46,7761 L46,7764 Z M62,7759 L50,7759 L48,7759 L46,7759 L44,7759 L44,7761 L44,7764 L44,7766 L46,7766 L48,7766 L50,7766 L62,7766 L64,7766 L64,7759 L62,7759 Z" id="object_placement-[#67]"> </path> </g> </g> </g> </g>
</svg>